<?xml version="1.0" encoding="UTF-8"?>
<svg xmlns="http://www.w3.org/2000/svg" xmlns:xlink="http://www.w3.org/1999/xlink" width="20px" height="20px" viewBox="0 0 20 20" version="1.1">
<defs>
<linearGradient id="linear0" gradientUnits="userSpaceOnUse" x1="-5.3763" y1="578.335022" x2="-5.3763" y2="648.37207" gradientTransform="matrix(0.312499,0,0,-0.312499,14.443051,197.160993)">
<stop offset="0" style="stop-color:rgb(16.078431%,82.745098%,85.490196%);stop-opacity:1;"/>
<stop offset="0.519" style="stop-color:rgb(0%,46.666667%,100%);stop-opacity:1;"/>
<stop offset="0.999" style="stop-color:rgb(2.352941%,25.098039%,57.647059%);stop-opacity:1;"/>
<stop offset="1" style="stop-color:rgb(3.137255%,27.45098%,59.607843%);stop-opacity:1;"/>
</linearGradient>
<linearGradient id="linear1" gradientUnits="userSpaceOnUse" x1="-17.586201" y1="582.004517" x2="6.8338" y2="653.242615" gradientTransform="matrix(0.312499,0,0,-0.312499,14.443051,197.160993)">
<stop offset="0.012" style="stop-color:rgb(87.843137%,70.196078%,52.54902%);stop-opacity:1;"/>
<stop offset="0.519" style="stop-color:rgb(85.490196%,28.627451%,54.901961%);stop-opacity:1;"/>
<stop offset="1" style="stop-color:rgb(58.823529%,7.843137%,51.764706%);stop-opacity:1;"/>
</linearGradient>
<linearGradient id="linear2" gradientUnits="userSpaceOnUse" x1="-13.7259" y1="589.876892" x2="-7.7719" y2="620.754883" gradientTransform="matrix(0.312499,0,0,-0.312499,14.443051,197.160993)">
<stop offset="0.012" style="stop-color:rgb(87.843137%,70.196078%,52.54902%);stop-opacity:1;"/>
<stop offset="0.519" style="stop-color:rgb(85.490196%,28.627451%,54.901961%);stop-opacity:1;"/>
<stop offset="1" style="stop-color:rgb(58.823529%,7.843137%,51.764706%);stop-opacity:1;"/>
</linearGradient>
<linearGradient id="linear3" gradientUnits="userSpaceOnUse" x1="-24.4874" y1="604.81488" x2="5.3826" y2="685.336914" gradientTransform="matrix(0.312499,0,0,-0.312499,14.443051,197.160993)">
<stop offset="0" style="stop-color:rgb(16.078431%,82.745098%,85.490196%);stop-opacity:1;"/>
<stop offset="0.519" style="stop-color:rgb(0%,46.666667%,100%);stop-opacity:1;"/>
<stop offset="0.999" style="stop-color:rgb(2.352941%,25.098039%,57.647059%);stop-opacity:1;"/>
<stop offset="1" style="stop-color:rgb(3.137255%,27.45098%,59.607843%);stop-opacity:1;"/>
</linearGradient>
<linearGradient id="linear4" gradientUnits="userSpaceOnUse" x1="-15.4808" y1="596.724915" x2="-17.3018" y2="636.683899" gradientTransform="matrix(0.312499,0,0,-0.312499,14.443051,197.160993)">
<stop offset="0" style="stop-color:rgb(16.078431%,82.745098%,85.490196%);stop-opacity:1;"/>
<stop offset="0.519" style="stop-color:rgb(0%,46.666667%,100%);stop-opacity:1;"/>
<stop offset="0.999" style="stop-color:rgb(2.352941%,25.098039%,57.647059%);stop-opacity:1;"/>
<stop offset="1" style="stop-color:rgb(3.137255%,27.45098%,59.607843%);stop-opacity:1;"/>
</linearGradient>
<linearGradient id="linear5" gradientUnits="userSpaceOnUse" x1="-23.059299" y1="619.492981" x2="-23.059299" y2="549.45813" gradientTransform="matrix(0.312499,0,0,-0.312499,14.443051,197.160993)">
<stop offset="0" style="stop-color:rgb(16.078431%,82.745098%,85.490196%);stop-opacity:1;"/>
<stop offset="0.519" style="stop-color:rgb(0%,46.666667%,100%);stop-opacity:1;"/>
<stop offset="0.999" style="stop-color:rgb(2.352941%,25.098039%,57.647059%);stop-opacity:1;"/>
<stop offset="1" style="stop-color:rgb(3.137255%,27.45098%,59.607843%);stop-opacity:1;"/>
</linearGradient>
<linearGradient id="linear6" gradientUnits="userSpaceOnUse" x1="-10.8498" y1="615.824097" x2="-35.268799" y2="544.586121" gradientTransform="matrix(0.312499,0,0,-0.312499,14.443051,197.160993)">
<stop offset="0.012" style="stop-color:rgb(87.843137%,70.196078%,52.54902%);stop-opacity:1;"/>
<stop offset="0.519" style="stop-color:rgb(85.490196%,28.627451%,54.901961%);stop-opacity:1;"/>
<stop offset="1" style="stop-color:rgb(58.823529%,7.843137%,51.764706%);stop-opacity:1;"/>
</linearGradient>
<linearGradient id="linear7" gradientUnits="userSpaceOnUse" x1="-14.7122" y1="607.950928" x2="-20.662201" y2="577.075928" gradientTransform="matrix(0.312499,0,0,-0.312499,14.443051,197.160993)">
<stop offset="0.012" style="stop-color:rgb(87.843137%,70.196078%,52.54902%);stop-opacity:1;"/>
<stop offset="0.519" style="stop-color:rgb(85.490196%,28.627451%,54.901961%);stop-opacity:1;"/>
<stop offset="1" style="stop-color:rgb(58.823529%,7.843137%,51.764706%);stop-opacity:1;"/>
</linearGradient>
<linearGradient id="linear8" gradientUnits="userSpaceOnUse" x1="-3.9471" y1="593.014771" x2="-33.815102" y2="512.494812" gradientTransform="matrix(0.312499,0,0,-0.312499,14.443051,197.160993)">
<stop offset="0" style="stop-color:rgb(16.078431%,82.745098%,85.490196%);stop-opacity:1;"/>
<stop offset="0.519" style="stop-color:rgb(0%,46.666667%,100%);stop-opacity:1;"/>
<stop offset="0.999" style="stop-color:rgb(2.352941%,25.098039%,57.647059%);stop-opacity:1;"/>
<stop offset="1" style="stop-color:rgb(3.137255%,27.45098%,59.607843%);stop-opacity:1;"/>
</linearGradient>
<linearGradient id="linear9" gradientUnits="userSpaceOnUse" x1="-12.9509" y1="601.105103" x2="-11.1349" y2="561.145081" gradientTransform="matrix(0.312499,0,0,-0.312499,14.443051,197.160993)">
<stop offset="0" style="stop-color:rgb(16.078431%,82.745098%,85.490196%);stop-opacity:1;"/>
<stop offset="0.519" style="stop-color:rgb(0%,46.666667%,100%);stop-opacity:1;"/>
<stop offset="0.999" style="stop-color:rgb(2.352941%,25.098039%,57.647059%);stop-opacity:1;"/>
<stop offset="1" style="stop-color:rgb(3.137255%,27.45098%,59.607843%);stop-opacity:1;"/>
</linearGradient>
</defs>
<g id="surface1">
<path style=" stroke:none;fill-rule:nonzero;fill:url(#linear0);" d="M 18.996094 5.804688 C 17.800781 4.152344 16.113281 2.882812 14.144531 2.207031 C 9.785156 3.214844 6.53125 7.121094 6.53125 11.789062 C 6.53125 12.515625 6.613281 13.222656 6.761719 13.902344 C 7.449219 9.140625 11.542969 5.484375 16.496094 5.484375 C 17.359375 5.484375 18.195312 5.597656 18.996094 5.804688 Z M 18.996094 5.804688 "/>
<path style=" stroke:none;fill-rule:nonzero;fill:url(#linear1);" d="M 18.539062 3.039062 C 16.960938 1.464844 14.921875 0.386719 12.683594 0 C 8.15625 1.84375 5.324219 6.621094 6.136719 11.65625 C 6.261719 12.4375 6.472656 13.183594 6.75 13.894531 C 6.667969 8.640625 10.445312 3.984375 15.785156 3.125 C 16.71875 2.976562 17.640625 2.953125 18.539062 3.039062 Z M 18.539062 3.039062 "/>
<path style=" stroke:none;fill-rule:nonzero;fill:url(#linear2);" d="M 14.144531 2.207031 C 9.785156 3.214844 6.53125 7.121094 6.53125 11.789062 C 6.53125 12.496094 6.609375 13.1875 6.75 13.851562 C 6.6875 8.617188 10.460938 3.984375 15.785156 3.125 C 15.871094 3.113281 15.953125 3.105469 16.035156 3.09375 C 15.441406 2.738281 14.8125 2.433594 14.144531 2.207031 Z M 14.144531 2.207031 "/>
<path style=" stroke:none;fill-rule:nonzero;fill:url(#linear3);" d="M 12.765625 1.335938 C 10.984375 0.574219 8.992188 0.363281 7.0625 0.773438 C 4.007812 3.722656 3.269531 8.488281 5.546875 12.285156 C 5.902344 12.875 6.3125 13.410156 6.765625 13.890625 C 5 9.683594 6.546875 4.710938 10.574219 2.292969 C 11.277344 1.871094 12.011719 1.554688 12.765625 1.335938 Z M 12.765625 1.335938 "/>
<path style=" stroke:none;fill-rule:nonzero;fill:url(#linear4);" d="M 11.101562 0.804688 C 7.519531 3.019531 5.425781 7.238281 6.136719 11.65625 C 6.171875 11.867188 6.210938 12.074219 6.257812 12.277344 C 5.429688 8.476562 7.050781 4.40625 10.574219 2.292969 C 11.277344 1.871094 12.011719 1.554688 12.765625 1.335938 C 12.226562 1.105469 11.671875 0.933594 11.101562 0.804688 Z M 11.101562 0.804688 "/>
<path style=" stroke:none;fill-rule:nonzero;fill:url(#linear5);" d="M 1.003906 14.195312 C 2.199219 15.847656 3.886719 17.117188 5.855469 17.792969 C 10.214844 16.785156 13.46875 12.878906 13.46875 8.210938 C 13.46875 7.484375 13.386719 6.777344 13.238281 6.097656 C 12.550781 10.859375 8.457031 14.515625 3.503906 14.515625 C 2.640625 14.515625 1.804688 14.402344 1.003906 14.195312 Z M 1.003906 14.195312 "/>
<path style=" stroke:none;fill-rule:nonzero;fill:url(#linear6);" d="M 1.460938 16.960938 C 3.039062 18.535156 5.078125 19.613281 7.316406 20 C 11.84375 18.15625 14.675781 13.378906 13.863281 8.34375 C 13.738281 7.5625 13.527344 6.816406 13.25 6.109375 C 13.332031 11.359375 9.554688 16.015625 4.214844 16.875 C 3.28125 17.023438 2.359375 17.046875 1.460938 16.960938 Z M 1.460938 16.960938 "/>
<path style=" stroke:none;fill-rule:nonzero;fill:url(#linear7);" d="M 5.855469 17.792969 C 10.214844 16.785156 13.46875 12.878906 13.46875 8.210938 C 13.46875 7.503906 13.390625 6.8125 13.25 6.148438 C 13.3125 11.382812 9.539062 16.015625 4.214844 16.875 C 4.128906 16.886719 4.046875 16.894531 3.964844 16.90625 C 4.558594 17.261719 5.1875 17.566406 5.855469 17.792969 Z M 5.855469 17.792969 "/>
<path style=" stroke:none;fill-rule:nonzero;fill:url(#linear8);" d="M 7.238281 18.664062 C 9.015625 19.425781 11.007812 19.636719 12.9375 19.226562 C 15.992188 16.277344 16.730469 11.511719 14.453125 7.714844 C 14.097656 7.125 13.6875 6.589844 13.234375 6.109375 C 15 10.316406 13.453125 15.289062 9.425781 17.707031 C 8.722656 18.128906 7.988281 18.445312 7.238281 18.664062 Z M 7.238281 18.664062 "/>
<path style=" stroke:none;fill-rule:nonzero;fill:url(#linear9);" d="M 8.898438 19.195312 C 12.484375 16.980469 14.574219 12.761719 13.863281 8.34375 C 13.832031 8.132812 13.789062 7.925781 13.742188 7.722656 C 14.570312 11.523438 12.949219 15.59375 9.425781 17.707031 C 8.722656 18.128906 7.988281 18.445312 7.238281 18.664062 C 7.773438 18.894531 8.328125 19.066406 8.898438 19.195312 Z M 8.898438 19.195312 "/>
</g>
</svg>
