<?xml version="1.0" encoding="UTF-8"?>
<svg xmlns="http://www.w3.org/2000/svg" xmlns:xlink="http://www.w3.org/1999/xlink" width="20px" height="20px" viewBox="0 0 20 20" version="1.1">
<defs>
<linearGradient id="linear0" gradientUnits="userSpaceOnUse" x1="-55.6633" y1="587.658691" x2="17.756701" y2="579.696716" gradientTransform="matrix(0.317456,0,0,-0.317456,15.76289,198.880461)">
<stop offset="0.012" style="stop-color:rgb(87.843137%,70.196078%,52.54902%);stop-opacity:1;"/>
<stop offset="0.519" style="stop-color:rgb(85.490196%,28.627451%,54.901961%);stop-opacity:1;"/>
<stop offset="1" style="stop-color:rgb(58.823529%,7.843137%,51.764706%);stop-opacity:1;"/>
</linearGradient>
<linearGradient id="linear1" gradientUnits="userSpaceOnUse" x1="25.4659" y1="615.876892" x2="-75.814102" y2="562.360901" gradientTransform="matrix(0.317456,0,0,-0.317456,15.76289,198.880461)">
<stop offset="0" style="stop-color:rgb(16.078431%,82.745098%,85.490196%);stop-opacity:1;"/>
<stop offset="0.519" style="stop-color:rgb(0%,46.666667%,100%);stop-opacity:1;"/>
<stop offset="0.999" style="stop-color:rgb(2.352941%,25.098039%,57.647059%);stop-opacity:1;"/>
<stop offset="1" style="stop-color:rgb(3.137255%,27.45098%,59.607843%);stop-opacity:1;"/>
</linearGradient>
</defs>
<g id="surface1">
<path style=" stroke:none;fill-rule:nonzero;fill:url(#linear0);" d="M 2.660156 16.828125 C 1.425781 15.039062 1.605469 12.574219 3.195312 10.984375 C 4.785156 9.394531 7.25 9.21875 9.035156 10.453125 L 10.359375 9.128906 C 7.835938 7.179688 4.199219 7.359375 1.882812 9.675781 C -0.429688 11.988281 -0.613281 15.628906 1.335938 18.152344 Z M 2.660156 16.828125 "/>
<path style=" stroke:none;fill-rule:nonzero;fill:url(#linear1);" d="M 17.339844 3.171875 C 18.574219 4.960938 18.394531 7.425781 16.804688 9.015625 C 15.21875 10.605469 12.75 10.78125 10.964844 9.546875 L 9.640625 10.871094 C 12.164062 12.820312 15.800781 12.640625 18.117188 10.324219 C 20.429688 8.011719 20.613281 4.371094 18.664062 1.847656 Z M 17.339844 3.171875 "/>
</g>
</svg>
