<?xml version="1.0" encoding="UTF-8"?>
<svg xmlns="http://www.w3.org/2000/svg" xmlns:xlink="http://www.w3.org/1999/xlink" width="20px" height="20px" viewBox="0 0 20 20" version="1.1">
<defs>
<linearGradient id="linear0" gradientUnits="userSpaceOnUse" x1="-20.978701" y1="631.81012" x2="-18.978701" y2="546.145081" gradientTransform="matrix(0.312551,0,0,-0.312551,14.457309,197.179759)">
<stop offset="0" style="stop-color:rgb(16.078431%,82.745098%,85.490196%);stop-opacity:1;"/>
<stop offset="0.519" style="stop-color:rgb(0%,46.666667%,100%);stop-opacity:1;"/>
<stop offset="0.999" style="stop-color:rgb(2.352941%,25.098039%,57.647059%);stop-opacity:1;"/>
<stop offset="1" style="stop-color:rgb(3.137255%,27.45098%,59.607843%);stop-opacity:1;"/>
</linearGradient>
<linearGradient id="linear1" gradientUnits="userSpaceOnUse" x1="13.1177" y1="552.60498" x2="-27.550301" y2="625.27002" gradientTransform="matrix(0.312551,0,0,-0.312551,14.457309,197.179759)">
<stop offset="0.012" style="stop-color:rgb(87.843137%,70.196078%,52.54902%);stop-opacity:1;"/>
<stop offset="0.519" style="stop-color:rgb(85.490196%,28.627451%,54.901961%);stop-opacity:1;"/>
<stop offset="1" style="stop-color:rgb(58.823529%,7.843137%,51.764706%);stop-opacity:1;"/>
</linearGradient>
</defs>
<g id="surface1">
<path style=" stroke:none;fill-rule:nonzero;fill:url(#linear0);" d="M 4.132812 14.039062 C 2.21875 11.265625 2.492188 7.433594 4.964844 4.964844 C 7.433594 2.492188 11.265625 2.21875 14.039062 4.132812 L 16.097656 2.078125 C 12.175781 -0.949219 6.523438 -0.667969 2.929688 2.925781 C -0.667969 6.523438 -0.949219 12.175781 2.074219 16.097656 Z M 4.132812 14.039062 "/>
<path style=" stroke:none;fill-rule:nonzero;fill:url(#linear1);" d="M 17.921875 3.902344 L 15.867188 5.960938 C 17.78125 8.734375 17.507812 12.566406 15.039062 15.035156 C 12.566406 17.507812 8.734375 17.78125 5.960938 15.867188 L 3.902344 17.925781 C 7.824219 20.949219 13.476562 20.667969 17.074219 17.070312 C 20.667969 13.476562 20.949219 7.824219 17.921875 3.902344 Z M 17.921875 3.902344 "/>
</g>
</svg>
